<svg viewBox="0 0 176 24" fill="none" xmlns="http://www.w3.org/2000/svg"><path id="Vector" d="M41.6948 18.6183C41.6948 18.6183 41.6948 18.6261 41.6948 18.6338C41.7182 18.5874 41.7415 18.5409 41.7727 18.5022C41.7727 18.5022 41.726 18.5796 41.7026 18.6183H41.6948Z" fill="currentColor"></path><path id="Vector_2" d="M22.4129 15.7739C22.4129 15.7739 22.3973 15.8049 22.3973 15.8126C22.3817 15.8978 22.3973 15.8746 22.4129 15.7739Z" fill="currentColor"></path><path id="Vector_3" d="M60.4629 8.45238C61.0625 8.45238 61.5454 7.97238 61.5454 7.38399C61.5454 6.7956 61.0625 6.30786 60.4629 6.30786C59.8632 6.30786 59.3882 6.78786 59.3882 7.38399C59.3882 7.98012 59.871 8.45238 60.4629 8.45238Z" fill="currentColor"></path><path id="Vector_4" d="M84.8461 11.9525C83.2029 11.9137 79.9477 14.515 79.5661 14.9021L81.2483 12.0144H78.7017C75.4231 17.5576 68.5856 22.915 65.5329 23.0234C62.776 23.2247 62.5813 21.266 63.4847 18.9589V18.9821C67.3863 19.377 74.2238 15.3976 72.0822 12.4402C70.2366 10.6208 65.2992 12.5331 62.1375 16.7137L61.9194 17.0312L61.4522 17.7125C60.3385 19.1989 58.0568 21.3279 58.0568 21.3279C55.113 24.2079 53.7814 22.5202 55.0274 20.4454L59.8868 12.0531H57.6907C57.0911 12.8737 54.1474 18.2544 49.3658 21.6221C46.6635 23.6815 44.5452 22.7989 46.4298 20.1125L51.1725 12.0531H53.8203L54.1707 11.6892H51.4684L54.3343 6.68794H51.9357C50.6585 8.8402 47.6836 13.857 44.6932 15.1267C45.2306 14.4221 45.0359 13.4776 45.0359 13.4776C44.8178 12.3937 43.6029 12.2854 43.6029 12.2854C43.6029 12.2854 41.8819 12.0221 39.9038 13.7718L40.9629 12.0299H38.5488C36.4383 15.7692 30.8235 23.7125 27.7707 22.946C26.9452 22.5899 26.8907 21.5525 27.7629 20.1512L32.6068 12.0144H30.2083C29.8734 12.5176 29.0479 14.0505 28.9155 14.3525C28.8921 14.4763 28.8766 14.515 28.8999 14.3989C28.8999 14.3912 28.9077 14.3757 28.9155 14.3525C28.9934 13.8725 29.1336 11.9757 27.2723 11.6118C26.8596 11.5267 26.5714 11.4957 26.1587 11.4957C24.1028 11.4725 22.0235 12.5408 19.9831 14.337C18.5424 15.5989 17.1874 17.2867 16.0348 19.3847C11.1052 23.8828 6.04329 24.146 4.39232 22.466C2.63232 20.6776 1.9548 17.0002 5.20223 10.7989C6.33144 9.14988 10.599 2.16665 16.7201 0.556327C21.2992 -0.651415 23.1683 1.91117 23.324 4.89955C23.324 4.89955 24.7102 2.306 26.2677 0.695682C25.3176 1.09826 23.2072 1.586 22.2182 0.997618C19.2433 -0.875931 13.5194 -0.604963 6.20683 6.16923C-0.0699812 12.5021 -4.53228 24.8118 7.91232 23.8518C12.3201 23.3021 16.0192 19.8183 16.0192 19.8183C15.4429 21.9318 16.3775 23.5344 18.192 23.8518C18.8617 23.9757 19.8118 23.7976 20.6217 23.4957C21.2992 23.217 22.7166 22.6518 24.5778 21.1886C24.0015 23.5034 27.6072 26.9641 34.2422 18.7963L31.1661 23.7279H33.9697C33.9697 23.7279 38.65 15.506 39.4989 14.6621C41.3212 12.2467 44.6621 11.7976 44.6153 13.4854C44.2493 13.2996 43.9222 13.2531 43.6419 13.2918C42.8398 13.4157 42.4893 14.4221 42.6451 15.1034C42.7307 15.3357 42.8709 15.5834 43.2369 15.7537C43.2369 15.7537 44.8022 16.8299 48.5636 12.146L48.0263 13.1137C48.0263 13.1137 44.2259 19.6247 43.7353 20.5537C41.8118 24.2234 46.3675 24.5718 49.0932 22.2492C49.0932 22.2492 51.3127 20.6234 53.8437 17.875C53.8125 17.9292 53.7813 17.9912 53.7502 18.0454C52.4497 20.3834 51.009 22.7679 52.8546 23.7976C53.392 24.0376 54.8171 24.2002 56.6083 22.9383C56.6083 22.9383 59.4663 20.6002 60.9693 18.7034C60.3307 20.1744 59.7467 22.5744 62.3244 23.666C63.7806 24.115 64.9644 23.8286 66.4206 23.3408C70.9998 21.8544 76.8405 15.1886 76.8405 15.1886C76.8405 15.1886 71.8953 23.3796 71.7318 23.6815H74.2472C74.2472 23.6815 77.8139 17.6583 78.5382 16.6441C80.4929 13.6015 84.7137 11.5112 85.1498 12.5718C83.5845 12.2621 83.2029 14.5692 84.4334 15.0337C86.3725 15.777 87.4861 12.0918 84.8383 11.9602L84.8461 11.9525ZM69.6837 12.1073C70.3612 12.177 70.6805 12.5254 70.6182 13.4621C70.4079 15.4828 67.4097 18.8041 63.6015 18.6879C64.9176 15.5834 68.0872 11.9679 69.6914 12.0996L69.6837 12.1073ZM23.7445 21.3434C23.0203 21.9628 22.1247 22.4583 22.1247 22.4583C18.4645 24.2931 17.639 22.2879 18.044 20.4454C18.3867 18.8505 19.804 16.5125 20.9721 15.0879C22.0235 13.9189 23.1293 13.0131 24.5544 12.3163C27.5916 10.8376 29.4529 12.6957 28.1913 15.3512C27.3736 17.0621 26.0263 19.4079 23.7445 21.3512V21.3434Z" fill="currentColor"></path><path id="Vector_5" d="M41.6948 18.6183L41.7649 18.5022C41.726 18.5641 41.7104 18.6028 41.6948 18.6183Z" fill="currentColor"></path><path id="Vector_6" d="M138.183 13.5941C141.813 13.5941 143.868 15.5295 143.868 18.3941C143.868 21.5218 141.423 23.8908 136.828 23.8908C133.706 23.8908 131.603 22.7373 130.053 21.4366L131.011 20.0276C132.39 21.2663 134.243 22.2418 136.891 22.2418C140.302 22.2418 141.984 20.616 141.984 18.3941C141.984 16.3966 140.605 15.0495 137.522 15.0495C136.213 15.0495 135.053 15.3128 134.157 15.5295L133.986 15.3128L139.032 10.1179H131.533L131.774 8.4689H142.288V8.68568L137.545 13.6173C137.74 13.5941 137.958 13.5941 138.176 13.5941H138.183ZM154.062 13.5476C157.777 13.5476 159.895 15.785 159.895 18.5024C159.895 21.4134 157.489 23.8908 153.494 23.8908C149.032 23.8908 146.563 20.9799 146.563 16.8689C146.563 11.8521 150.519 8.24438 156.64 8.24438L157.014 9.89342C152.225 9.89342 149.296 11.9373 148.619 15.2586C149.803 14.4766 151.656 13.5399 154.062 13.5399V13.5476ZM153.587 22.2418C156.321 22.2418 158.026 20.5928 158.026 18.4792C158.026 16.3657 156.344 15.0495 153.525 15.0495C151.446 15.0495 149.655 15.7231 148.479 16.4199V16.8302C148.479 20.136 150.27 22.2418 153.595 22.2418H153.587ZM169.708 13.5476C173.36 13.5476 175.455 15.4831 175.455 18.3941C175.455 21.5915 172.901 23.8908 168.547 23.8908C165.51 23.8908 163.369 22.7605 161.881 21.5218L162.839 20.1515C164.35 21.3437 166.094 22.2341 168.563 22.2341C171.818 22.2341 173.477 20.647 173.477 18.4947C173.477 16.3424 171.88 15.0418 169.24 15.0418C166.811 15.0418 164.545 16.1102 163.532 16.6521L163.446 16.5902L163.906 8.46116H174.045L173.804 10.1102H165.611L165.347 14.5618C166.46 14.0818 167.948 13.5399 169.7 13.5399L169.708 13.5476Z" fill="currentColor" stroke="currentColor" stroke-width="0.0419761"></path><path id="Vector_7" d="M94.2302 17.2839H119.929" stroke="currentColor" stroke-width="0.839522"></path></svg>